<svg width="820" height="312" viewBox="0 0 820 312" fill="none" xmlns="http://www.w3.org/2000/svg">
<rect width="820" height="312" fill="white"/>
<path d="M713.54 212.3C714.053 212.3 714.427 212.463 714.66 212.79C714.94 213.07 715.08 213.443 715.08 213.91V260.67C715.08 261.79 714.567 262.35 713.54 262.35C712.7 262.35 712.28 261.79 712.28 260.67V218.81L694.22 253.74C694.033 254.113 693.777 254.417 693.45 254.65C693.17 254.837 692.843 254.93 692.47 254.93C691.677 254.93 691.093 254.533 690.72 253.74L672.52 219.09V260.67C672.52 261.79 672.053 262.35 671.12 262.35C670.187 262.35 669.72 261.79 669.72 260.67V213.91C669.72 213.443 669.837 213.07 670.07 212.79C670.35 212.463 670.747 212.3 671.26 212.3C671.54 212.3 671.797 212.393 672.03 212.58C672.263 212.72 672.497 213.023 672.73 213.49L692.47 251.5L712 213.49C712.233 213.023 712.467 212.72 712.7 212.58C712.933 212.393 713.213 212.3 713.54 212.3ZM769.109 260.6C769.202 260.88 769.249 261.067 769.249 261.16C769.249 261.533 769.109 261.813 768.829 262C768.596 262.233 768.292 262.35 767.919 262.35C767.219 262.35 766.729 262.023 766.449 261.37L760.779 248.35H732.849L727.109 261.37C726.829 262.023 726.362 262.35 725.709 262.35C725.196 262.35 724.799 262.187 724.519 261.86C724.239 261.533 724.192 261.113 724.379 260.6L745.099 213.35C745.379 212.603 745.939 212.23 746.779 212.23C747.152 212.23 747.479 212.347 747.759 212.58C748.086 212.767 748.319 213.023 748.459 213.35L769.109 260.6ZM734.039 245.55H759.519L746.779 216.43L734.039 245.55Z" fill="black"/>
<path d="M552.72 213.3C554.26 213.3 555.497 213.813 556.43 214.84C557.41 215.82 557.9 217.103 557.9 218.69V258.45C557.9 259.99 557.457 261.203 556.57 262.09C555.683 262.977 554.517 263.42 553.07 263.42C551.67 263.42 550.527 262.977 549.64 262.09C548.753 261.203 548.31 259.99 548.31 258.45V233.74L538.37 252.43C537.717 253.643 536.993 254.53 536.2 255.09C535.453 255.65 534.543 255.93 533.47 255.93C532.443 255.93 531.533 255.65 530.74 255.09C529.947 254.53 529.223 253.643 528.57 252.43L518.63 234.09V258.45C518.63 259.943 518.187 261.157 517.3 262.09C516.413 262.977 515.247 263.42 513.8 263.42C512.4 263.42 511.257 262.977 510.37 262.09C509.483 261.203 509.04 259.99 509.04 258.45V218.69C509.04 217.103 509.507 215.82 510.44 214.84C511.42 213.813 512.68 213.3 514.22 213.3C516.46 213.3 518.163 214.49 519.33 216.87L533.54 243.82L547.68 216.87C548.94 214.49 550.62 213.3 552.72 213.3ZM613.816 256.35C614.189 257.19 614.376 257.937 614.376 258.59C614.376 259.897 613.839 261.017 612.766 261.95C611.739 262.837 610.549 263.28 609.196 263.28C608.309 263.28 607.469 263.047 606.676 262.58C605.882 262.067 605.276 261.32 604.856 260.34L601.146 252.08H577.416L573.706 260.34C573.286 261.32 572.679 262.067 571.886 262.58C571.139 263.047 570.299 263.28 569.366 263.28C568.012 263.28 566.799 262.837 565.726 261.95C564.652 261.017 564.116 259.897 564.116 258.59C564.116 257.937 564.302 257.19 564.676 256.35L583.576 216.66C584.089 215.54 584.859 214.7 585.886 214.14C586.912 213.533 588.009 213.23 589.176 213.23C590.389 213.23 591.509 213.533 592.536 214.14C593.562 214.747 594.356 215.587 594.916 216.66L613.816 256.35ZM581.126 243.82H597.436L589.316 225.62L581.126 243.82ZM658.709 255.16C659.595 256.187 660.039 257.26 660.039 258.38C660.039 259.733 659.502 260.923 658.429 261.95C657.402 262.93 656.212 263.42 654.859 263.42C653.459 263.42 652.269 262.837 651.289 261.67L638.129 245.57L624.829 261.67C623.802 262.837 622.612 263.42 621.259 263.42C619.952 263.42 618.762 262.93 617.689 261.95C616.662 260.923 616.149 259.733 616.149 258.38C616.149 257.213 616.569 256.14 617.409 255.16L631.759 238.08L617.899 221.49C617.012 220.463 616.569 219.39 616.569 218.27C616.569 216.917 617.082 215.75 618.109 214.77C619.182 213.743 620.372 213.23 621.679 213.23C623.079 213.23 624.292 213.837 625.319 215.05L638.129 230.52L650.799 215.05C651.825 213.837 653.039 213.23 654.439 213.23C655.745 213.23 656.912 213.743 657.939 214.77C659.012 215.75 659.549 216.917 659.549 218.27C659.549 219.437 659.129 220.51 658.289 221.49L644.429 238.08L658.709 255.16Z" fill="black"/>
</svg>
