<svg width="1020" height="436" viewBox="0 0 1020 436" fill="none" xmlns="http://www.w3.org/2000/svg">
<g clip-path="url(#clip0)">
<rect width="1020" height="436" fill="white"/>
<path d="M1018.35 196H965.55L964.05 137.2L960.75 88.3H957.15L925.95 177.7H880.65L854.85 88.3H851.25L847.05 131.5L844.05 196H793.95L812.85 1.9H882.15L887.85 29.5L904.95 100H908.55L927.45 31.6L934.35 1.9H1002.75L1018.35 196ZM998.057 436H937.157L931.757 403.9L931.457 403L902.057 402.4L877.457 403.6L872.357 436H813.557L872.357 241.9H944.957L998.057 436ZM922.457 359.2L909.257 295.6H905.657L888.857 359.2L905.657 359.5L922.457 359.2Z" fill="black"/>
<path d="M755.057 196H694.157L688.757 163.9L688.457 163L659.057 162.4L634.457 163.6L629.357 196H570.557L629.357 1.9H701.957L755.057 196ZM679.457 119.2L666.257 55.6H662.657L645.857 119.2L662.657 119.5L679.457 119.2ZM702.523 333.4L761.023 436H689.323L679.123 412.3L661.723 380.8L639.523 415.3L629.923 436H569.023L626.623 342.7L567.223 241.9H639.223L649.723 266.2L666.823 296.8L686.323 262.9L695.323 241.9H758.023L702.523 333.4Z" fill="black"/>
</g>
<defs>
<clipPath id="clip0">
<rect width="1020" height="436" fill="white"/>
</clipPath>
</defs>
</svg>
