<svg width="1020" height="420" viewBox="0 0 1020 420" fill="none" xmlns="http://www.w3.org/2000/svg">
<g clip-path="url(#clip0)">
<rect width="1020" height="420" fill="white"/>
<path d="M631.175 424H604.775L604.025 394.6L602.375 370.15H600.575L584.975 414.85H562.325L549.425 370.15H547.625L545.525 391.75L544.025 424H518.975L528.425 326.95H563.075L565.925 340.75L574.475 376H576.275L585.725 341.8L589.175 326.95H623.375L631.175 424Z" fill="black"/>
<path d="M729.029 418H698.579L695.879 401.95L695.729 401.5L681.029 401.2L668.729 401.8L666.179 418H636.779L666.179 320.95H702.479L729.029 418ZM691.229 379.6L684.629 347.8H682.829L674.429 379.6L682.829 379.75L691.229 379.6Z" fill="black"/>
<path d="M924.61 418H917.41L914.86 388.75L909.01 335.65H908.11L878.86 406.45H871.81L843.61 335.65H842.71L836.86 388.3L834.01 418H827.11L837.46 322.15H846.31L851.71 336.85L875.26 396.1H876.01L900.91 335.65L906.01 322.15H914.86L924.61 418ZM1016.13 418H1008.03L1005.93 409.9L998.733 389.2L975.933 388.9L955.383 389.2L947.583 409.6L945.333 418H937.233L973.833 322.15H982.683L1016.13 418ZM996.333 382.3L978.483 331.15H977.583L958.083 382.3L976.833 382.45L996.333 382.3Z" fill="black"/>
<path d="M793.762 366.7L823.012 418H787.162L782.062 406.15L773.362 390.4L762.262 407.65L757.462 418H727.012L755.812 371.35L726.112 320.95H762.112L767.362 333.1L775.912 348.4L785.662 331.45L790.162 320.95H821.512L793.762 366.7Z" fill="black"/>
</g>
<defs>
<clipPath id="clip0">
<rect width="1020" height="420" fill="white"/>
</clipPath>
</defs>
</svg>
