<svg width="860" height="300" viewBox="0 0 860 300" fill="none" xmlns="http://www.w3.org/2000/svg">
<rect width="860" height="300" fill="white"/>
<path d="M801.54 248.3C802.053 248.3 802.427 248.463 802.66 248.79C802.94 249.07 803.08 249.443 803.08 249.91V296.67C803.08 297.79 802.567 298.35 801.54 298.35C800.7 298.35 800.28 297.79 800.28 296.67V254.81L782.22 289.74C782.033 290.113 781.777 290.417 781.45 290.65C781.17 290.837 780.843 290.93 780.47 290.93C779.677 290.93 779.093 290.533 778.72 289.74L760.52 255.09V296.67C760.52 297.79 760.053 298.35 759.12 298.35C758.187 298.35 757.72 297.79 757.72 296.67V249.91C757.72 249.443 757.837 249.07 758.07 248.79C758.35 248.463 758.747 248.3 759.26 248.3C759.54 248.3 759.797 248.393 760.03 248.58C760.263 248.72 760.497 249.023 760.73 249.49L780.47 287.5L800 249.49C800.233 249.023 800.467 248.72 800.7 248.58C800.933 248.393 801.213 248.3 801.54 248.3ZM857.109 296.6C857.202 296.88 857.249 297.067 857.249 297.16C857.249 297.533 857.109 297.813 856.829 298C856.596 298.233 856.292 298.35 855.919 298.35C855.219 298.35 854.729 298.023 854.449 297.37L848.779 284.35H820.849L815.109 297.37C814.829 298.023 814.362 298.35 813.709 298.35C813.196 298.35 812.799 298.187 812.519 297.86C812.239 297.533 812.192 297.113 812.379 296.6L833.099 249.35C833.379 248.603 833.939 248.23 834.779 248.23C835.152 248.23 835.479 248.347 835.759 248.58C836.086 248.767 836.319 249.023 836.459 249.35L857.109 296.6ZM822.039 281.55H847.519L834.779 252.43L822.039 281.55Z" fill="black"/>
<path d="M640.72 249.3C642.26 249.3 643.497 249.813 644.43 250.84C645.41 251.82 645.9 253.103 645.9 254.69V294.45C645.9 295.99 645.457 297.203 644.57 298.09C643.683 298.977 642.517 299.42 641.07 299.42C639.67 299.42 638.527 298.977 637.64 298.09C636.753 297.203 636.31 295.99 636.31 294.45V269.74L626.37 288.43C625.717 289.643 624.993 290.53 624.2 291.09C623.453 291.65 622.543 291.93 621.47 291.93C620.443 291.93 619.533 291.65 618.74 291.09C617.947 290.53 617.223 289.643 616.57 288.43L606.63 270.09V294.45C606.63 295.943 606.187 297.157 605.3 298.09C604.413 298.977 603.247 299.42 601.8 299.42C600.4 299.42 599.257 298.977 598.37 298.09C597.483 297.203 597.04 295.99 597.04 294.45V254.69C597.04 253.103 597.507 251.82 598.44 250.84C599.42 249.813 600.68 249.3 602.22 249.3C604.46 249.3 606.163 250.49 607.33 252.87L621.54 279.82L635.68 252.87C636.94 250.49 638.62 249.3 640.72 249.3ZM701.816 292.35C702.189 293.19 702.376 293.937 702.376 294.59C702.376 295.897 701.839 297.017 700.766 297.95C699.739 298.837 698.549 299.28 697.196 299.28C696.309 299.28 695.469 299.047 694.676 298.58C693.882 298.067 693.276 297.32 692.856 296.34L689.146 288.08H665.416L661.706 296.34C661.286 297.32 660.679 298.067 659.886 298.58C659.139 299.047 658.299 299.28 657.366 299.28C656.012 299.28 654.799 298.837 653.726 297.95C652.652 297.017 652.116 295.897 652.116 294.59C652.116 293.937 652.302 293.19 652.676 292.35L671.576 252.66C672.089 251.54 672.859 250.7 673.886 250.14C674.912 249.533 676.009 249.23 677.176 249.23C678.389 249.23 679.509 249.533 680.536 250.14C681.562 250.747 682.356 251.587 682.916 252.66L701.816 292.35ZM669.126 279.82H685.436L677.316 261.62L669.126 279.82ZM746.709 291.16C747.595 292.187 748.039 293.26 748.039 294.38C748.039 295.733 747.502 296.923 746.429 297.95C745.402 298.93 744.212 299.42 742.859 299.42C741.459 299.42 740.269 298.837 739.289 297.67L726.129 281.57L712.829 297.67C711.802 298.837 710.612 299.42 709.259 299.42C707.952 299.42 706.762 298.93 705.689 297.95C704.662 296.923 704.149 295.733 704.149 294.38C704.149 293.213 704.569 292.14 705.409 291.16L719.759 274.08L705.899 257.49C705.012 256.463 704.569 255.39 704.569 254.27C704.569 252.917 705.082 251.75 706.109 250.77C707.182 249.743 708.372 249.23 709.679 249.23C711.079 249.23 712.292 249.837 713.319 251.05L726.129 266.52L738.799 251.05C739.825 249.837 741.039 249.23 742.439 249.23C743.745 249.23 744.912 249.743 745.939 250.77C747.012 251.75 747.549 252.917 747.549 254.27C747.549 255.437 747.129 256.51 746.289 257.49L732.429 274.08L746.709 291.16Z" fill="black"/>
</svg>
