<svg width="800" height="300" viewBox="0 0 800 300" fill="none" xmlns="http://www.w3.org/2000/svg">
<rect width="800" height="300" fill="white"/>
<path d="M741.54 248.3C742.053 248.3 742.427 248.463 742.66 248.79C742.94 249.07 743.08 249.443 743.08 249.91V296.67C743.08 297.79 742.567 298.35 741.54 298.35C740.7 298.35 740.28 297.79 740.28 296.67V254.81L722.22 289.74C722.033 290.113 721.777 290.417 721.45 290.65C721.17 290.837 720.843 290.93 720.47 290.93C719.677 290.93 719.093 290.533 718.72 289.74L700.52 255.09V296.67C700.52 297.79 700.053 298.35 699.12 298.35C698.187 298.35 697.72 297.79 697.72 296.67V249.91C697.72 249.443 697.837 249.07 698.07 248.79C698.35 248.463 698.747 248.3 699.26 248.3C699.54 248.3 699.797 248.393 700.03 248.58C700.263 248.72 700.497 249.023 700.73 249.49L720.47 287.5L740 249.49C740.233 249.023 740.467 248.72 740.7 248.58C740.933 248.393 741.213 248.3 741.54 248.3ZM797.109 296.6C797.202 296.88 797.249 297.067 797.249 297.16C797.249 297.533 797.109 297.813 796.829 298C796.596 298.233 796.292 298.35 795.919 298.35C795.219 298.35 794.729 298.023 794.449 297.37L788.779 284.35H760.849L755.109 297.37C754.829 298.023 754.362 298.35 753.709 298.35C753.196 298.35 752.799 298.187 752.519 297.86C752.239 297.533 752.192 297.113 752.379 296.6L773.099 249.35C773.379 248.603 773.939 248.23 774.779 248.23C775.152 248.23 775.479 248.347 775.759 248.58C776.086 248.767 776.319 249.023 776.459 249.35L797.109 296.6ZM762.039 281.55H787.519L774.779 252.43L762.039 281.55Z" fill="black"/>
<path d="M580.72 249.3C582.26 249.3 583.497 249.813 584.43 250.84C585.41 251.82 585.9 253.103 585.9 254.69V294.45C585.9 295.99 585.457 297.203 584.57 298.09C583.683 298.977 582.517 299.42 581.07 299.42C579.67 299.42 578.527 298.977 577.64 298.09C576.753 297.203 576.31 295.99 576.31 294.45V269.74L566.37 288.43C565.717 289.643 564.993 290.53 564.2 291.09C563.453 291.65 562.543 291.93 561.47 291.93C560.443 291.93 559.533 291.65 558.74 291.09C557.947 290.53 557.223 289.643 556.57 288.43L546.63 270.09V294.45C546.63 295.943 546.187 297.157 545.3 298.09C544.413 298.977 543.247 299.42 541.8 299.42C540.4 299.42 539.257 298.977 538.37 298.09C537.483 297.203 537.04 295.99 537.04 294.45V254.69C537.04 253.103 537.507 251.82 538.44 250.84C539.42 249.813 540.68 249.3 542.22 249.3C544.46 249.3 546.163 250.49 547.33 252.87L561.54 279.82L575.68 252.87C576.94 250.49 578.62 249.3 580.72 249.3ZM641.816 292.35C642.189 293.19 642.376 293.937 642.376 294.59C642.376 295.897 641.839 297.017 640.766 297.95C639.739 298.837 638.549 299.28 637.196 299.28C636.309 299.28 635.469 299.047 634.676 298.58C633.882 298.067 633.276 297.32 632.856 296.34L629.146 288.08H605.416L601.706 296.34C601.286 297.32 600.679 298.067 599.886 298.58C599.139 299.047 598.299 299.28 597.366 299.28C596.012 299.28 594.799 298.837 593.726 297.95C592.652 297.017 592.116 295.897 592.116 294.59C592.116 293.937 592.302 293.19 592.676 292.35L611.576 252.66C612.089 251.54 612.859 250.7 613.886 250.14C614.912 249.533 616.009 249.23 617.176 249.23C618.389 249.23 619.509 249.533 620.536 250.14C621.562 250.747 622.356 251.587 622.916 252.66L641.816 292.35ZM609.126 279.82H625.436L617.316 261.62L609.126 279.82ZM686.709 291.16C687.595 292.187 688.039 293.26 688.039 294.38C688.039 295.733 687.502 296.923 686.429 297.95C685.402 298.93 684.212 299.42 682.859 299.42C681.459 299.42 680.269 298.837 679.289 297.67L666.129 281.57L652.829 297.67C651.802 298.837 650.612 299.42 649.259 299.42C647.952 299.42 646.762 298.93 645.689 297.95C644.662 296.923 644.149 295.733 644.149 294.38C644.149 293.213 644.569 292.14 645.409 291.16L659.759 274.08L645.899 257.49C645.012 256.463 644.569 255.39 644.569 254.27C644.569 252.917 645.082 251.75 646.109 250.77C647.182 249.743 648.372 249.23 649.679 249.23C651.079 249.23 652.292 249.837 653.319 251.05L666.129 266.52L678.799 251.05C679.825 249.837 681.039 249.23 682.439 249.23C683.745 249.23 684.912 249.743 685.939 250.77C687.012 251.75 687.549 252.917 687.549 254.27C687.549 255.437 687.129 256.51 686.289 257.49L672.429 274.08L686.709 291.16Z" fill="black"/>
</svg>
