<svg width="1020" height="420" viewBox="0 0 1020 420" fill="none" xmlns="http://www.w3.org/2000/svg">
<g clip-path="url(#clip0)">
<rect width="1020" height="420" fill="white"/>
<path d="M1019.1 318H992.7L991.95 288.6L990.3 264.15H988.5L972.9 308.85H950.25L937.35 264.15H935.55L933.45 285.75L931.95 318H906.9L916.35 220.95H951L953.85 234.75L962.4 270H964.2L973.65 235.8L977.1 220.95H1011.3L1019.1 318ZM1008.95 420H978.503L975.803 403.95L975.653 403.5L960.953 403.2L948.653 403.8L946.103 420H916.703L946.103 322.95H982.403L1008.95 420ZM971.153 381.6L964.553 349.8H962.753L954.353 381.6L962.753 381.75L971.153 381.6Z" fill="black"/>
<path d="M902.029 318H871.579L868.879 301.95L868.729 301.5L854.029 301.2L841.729 301.8L839.179 318H809.779L839.179 220.95H875.479L902.029 318ZM864.229 279.6L857.629 247.8H855.829L847.429 279.6L855.829 279.75L864.229 279.6ZM875.762 368.7L905.012 420H869.162L864.062 408.15L855.362 392.4L844.262 409.65L839.462 420H809.012L837.812 373.35L808.112 322.95H844.112L849.362 335.1L857.912 350.4L867.662 333.45L872.162 322.95H903.512L875.762 368.7Z" fill="black"/>
</g>
<defs>
<clipPath id="clip0">
<rect width="1020" height="420" fill="white"/>
</clipPath>
</defs>
</svg>
